<svg xmlns="http://www.w3.org/2000/svg" version="1.1" xmlns:xlink="http://www.w3.org/1999/xlink" xmlns:svgjs="http://svgjs.dev/svgjs" width="1500" height="1500" viewBox="0 0 1500 1500"><rect width="1500" height="1500" fill="#000000"></rect><g transform="matrix(0.6666666666666666,0,0,0.6666666666666666,249.39393939393938,688.1694107668953)"><svg viewBox="0 0 396 49" data-background-color="#ffffff" preserveAspectRatio="xMidYMid meet" height="185" width="1500" xmlns="http://www.w3.org/2000/svg" xmlns:xlink="http://www.w3.org/1999/xlink"><g id="tight-bounds" transform="matrix(1,0,0,1,0.2400000000000091,0.06512599261188257)"><svg viewBox="0 0 395.52 48.86974801477624" height="48.86974801477624" width="395.52"><g><svg viewBox="0 0 462.41514033183233 57.135192622962286" height="48.86974801477624" width="395.52"><g transform="matrix(1,0,0,1,0,7.896397822710419)"><svg viewBox="0 0 395.52 41.34239697754145" height="41.34239697754145" width="395.52"><g id="textblocktransform"><svg viewBox="0 0 395.52 41.34239697754145" height="41.34239697754145" width="395.52" id="textblock"><g><svg viewBox="0 0 395.52 41.34239697754145" height="41.34239697754145" width="395.52"><g transform="matrix(1,0,0,1,0,0)"><svg width="395.52" viewBox="3.91 -35.86 348.91999999999996 36.47" height="41.34239697754145" data-palette-color="#1c1b13"><path d="M22.22 0L9.94 0Q7.42 0 6.12-0.63 4.81-1.27 4.36-2.71 3.91-4.15 3.91-6.54L3.91-6.54 3.91-28.47Q3.91-30.91 4.36-32.34 4.81-33.76 6.12-34.39 7.42-35.01 9.94-35.01L9.94-35.01 21.41-35.01Q22-35.01 22.29-34.81L22.29-34.81Q22.92-34.38 23.61-33.76 24.29-33.15 25.05-32.3L25.05-32.3Q25.29-31.98 25.29-31.79L25.29-31.79Q25.29-31.57 25.05-31.3L25.05-31.3Q24.29-30.44 23.61-29.83 22.92-29.22 22.29-28.78L22.29-28.78Q21.95-28.59 21.41-28.59L21.41-28.59 14.58-28.59Q12.96-28.59 12.38-27.91 11.79-27.22 11.79-25.56L11.79-25.56 11.79-20.83 20.56-20.83Q21.14-20.83 21.44-20.63L21.44-20.63Q22.07-20.19 22.75-19.58 23.44-18.97 24.19-18.12L24.19-18.12Q24.44-17.8 24.44-17.6L24.44-17.6Q24.44-17.38 24.19-17.11L24.19-17.11Q23.44-16.26 22.75-15.65 22.07-15.04 21.44-14.6L21.44-14.6Q21.09-14.4 20.56-14.4L20.56-14.4 11.79-14.4 11.79-9.47Q11.79-7.84 12.38-7.13 12.96-6.42 14.58-6.42L14.58-6.42 22.22-6.42Q22.8-6.42 23.1-6.23L23.1-6.23Q23.73-5.79 24.41-5.18 25.1-4.57 25.85-3.71L25.85-3.71Q26.1-3.39 26.1-3.2L26.1-3.2Q26.1-2.98 25.85-2.71L25.85-2.71Q25.1-1.86 24.41-1.25 23.73-0.63 23.1-0.2L23.1-0.2Q22.75 0 22.22 0L22.22 0ZM44.75 0L37.25 0Q34.74 0 33.43-0.63 32.13-1.27 31.67-2.71 31.22-4.15 31.22-6.54L31.22-6.54 31.22-28.47Q31.22-30.91 31.67-32.34 32.13-33.76 33.43-34.39 34.74-35.01 37.25-35.01L37.25-35.01 44.75-35.01Q50-35.01 53.94-33.45 57.88-31.88 60.08-28.16 62.28-24.44 62.28-17.94L62.28-17.94Q62.28-11.45 60.08-7.51 57.88-3.56 53.94-1.78 50 0 44.75 0L44.75 0ZM42.97-28.59L41.89-28.59Q40.28-28.59 39.69-27.91 39.11-27.22 39.11-25.56L39.11-25.56 39.11-9.45Q39.11-7.81 39.69-7.1 40.28-6.4 41.89-6.4L41.89-6.4 43.02-6.4Q48.24-6.4 51.11-8.96 53.98-11.52 53.98-17.85L53.98-17.85Q53.98-22.07 52.67-24.4 51.36-26.73 48.9-27.66 46.43-28.59 42.97-28.59L42.97-28.59ZM82.54 0.59L82.54 0.59Q77.95 0.59 74.71-0.61 71.48-1.81 69.78-4.81 68.09-7.81 68.09-13.23L68.09-13.23 68.09-31.1Q68.09-31.81 68.33-32.18L68.33-32.18Q69.43-33.79 71.41-35.57L71.41-35.57Q71.77-35.86 72.04-35.86L72.04-35.86Q72.33-35.86 72.65-35.57L72.65-35.57Q73.73-34.64 74.46-33.8 75.19-32.96 75.73-32.18L75.73-32.18Q75.97-31.79 75.97-31.1L75.97-31.1 75.97-14.45Q75.97-10.96 76.72-9.14 77.46-7.32 78.93-6.67 80.39-6.01 82.54-6.01L82.54-6.01Q84.74-6.01 86.2-6.67 87.67-7.32 88.4-9.14 89.13-10.96 89.13-14.45L89.13-14.45 89.13-31.1Q89.13-31.81 89.37-32.18L89.37-32.18Q90.47-33.79 92.45-35.57L92.45-35.57Q92.82-35.86 93.09-35.86L93.09-35.86Q93.38-35.86 93.7-35.57L93.7-35.57Q94.77-34.64 95.5-33.8 96.24-32.96 96.77-32.18L96.77-32.18Q97.02-31.79 97.02-31.1L97.02-31.1 97.02-13.23Q97.02-7.81 95.16-4.81 93.31-1.81 90.05-0.61 86.79 0.59 82.54 0.59ZM133.02-5.98L133.02-5.98Q134.8-5.98 135.82-6.35 136.83-6.71 137.39-7.25 137.95-7.79 138.37-8.33L138.37-8.33Q138.76-8.81 139.02-9.06 139.27-9.3 139.74-9.4L139.74-9.4Q140.13-9.52 140.99-9.56 141.86-9.59 142.73-9.59 143.59-9.59 143.94-9.55L143.94-9.55Q144.45-9.52 144.64-9.35L144.64-9.35Q144.84-9.18 144.89-8.62L144.89-8.62Q144.96-7.84 144.97-6.76 144.99-5.69 144.94-4.91L144.94-4.91Q144.91-4.66 144.85-4.49 144.79-4.32 144.59-3.98L144.59-3.98Q144.35-3.59 143.64-2.84 142.93-2.1 141.57-1.31 140.2-0.51 138.04 0.05 135.88 0.61 132.73 0.61L132.73 0.61Q129.36 0.61 126.43-0.26 123.5-1.12 121.29-3.17 119.08-5.22 117.85-8.72 116.62-12.21 116.62-17.43L116.62-17.43Q116.62-23.24 118.63-27.31 120.64-31.37 124.36-33.5 128.07-35.62 133.14-35.62L133.14-35.62Q136.71-35.62 138.87-34.89 141.03-34.16 142.15-33.17 143.28-32.18 143.74-31.45L143.74-31.45Q143.91-31.18 143.98-30.97 144.06-30.76 144.08-30.32L144.08-30.32Q144.16-29.74 144.12-28.61 144.08-27.49 143.94-26.64L143.94-26.64Q143.84-26.1 143.62-25.93L143.62-25.93Q143.52-25.83 143.28-25.76 143.03-25.68 142.54-25.68L142.54-25.68Q141.76-25.68 140.79-25.74 139.81-25.81 139.32-25.88L139.32-25.88Q138.74-25.98 138.47-26.16 138.2-26.34 137.93-26.73L137.93-26.73Q137.49-27.37 136.42-28.2 135.34-29.03 132.88-29.03L132.88-29.03Q129.41-29.03 127.16-26.35 124.92-23.68 124.92-17.7L124.92-17.7Q124.92-11.74 127.27-8.86 129.63-5.98 133.02-5.98ZM165.37 0.61L165.37 0.61Q160.29 0.61 156.53-1.34 152.77-3.3 150.71-7.23 148.64-11.16 148.64-17.04L148.64-17.04Q148.64-26.39 153.21-30.99 157.78-35.6 165.93-35.6L165.93-35.6Q173.57-35.6 178.01-31.09 182.46-26.59 182.46-17.75L182.46-17.75Q182.46-11.5 180.38-7.43 178.31-3.37 174.47-1.38 170.64 0.61 165.37 0.61ZM165.51-5.98L165.51-5.98Q169.91-5.98 172.03-9.13 174.16-12.28 174.16-17.31L174.16-17.31Q174.16-23.14 172.16-26.07 170.15-29 165.71-29L165.71-29Q156.95-29 156.95-17.46L156.95-17.46Q156.95-12.3 159.06-9.14 161.17-5.98 165.51-5.98ZM196.01-25.29L196.01-1.29Q196.01-0.56 195.72-0.28 195.44 0 194.74 0L194.74 0 189.83 0Q189.15 0 188.85-0.28 188.56-0.56 188.56-1.29L188.56-1.29 188.56-32.23Q188.56-33.67 189.12-34.34 189.68-35.01 191.1-35.01L191.1-35.01 193.37-35.01Q194.61-35.01 195.72-34.68 196.84-34.35 198.09-33.2 199.35-32.06 201.02-29.65 202.69-27.25 205.06-23.1L205.06-23.1Q207.33-19.14 208.71-16.77 210.09-14.4 210.85-13.16 211.61-11.91 211.98-11.38 212.36-10.84 212.61-10.5L212.61-10.5 212.61-31.1Q212.61-31.81 212.83-32.18L212.83-32.18Q213.88-33.79 215.73-35.57L215.73-35.57Q216.1-35.86 216.34-35.86L216.34-35.86Q216.61-35.86 216.93-35.57L216.93-35.57Q217.93-34.64 218.63-33.8 219.32-32.96 219.83-32.18L219.83-32.18Q220.05-31.79 220.05-31.1L220.05-31.1 220.05-2.03Q220.05-0.93 219.64-0.46 219.22 0 218.12 0L218.12 0 215.78 0Q214.73 0 213.63-0.35 212.53-0.71 211.14-1.97 209.75-3.22 207.85-5.88 205.94-8.54 203.26-13.16L203.26-13.16Q200.99-17.09 199.63-19.41 198.28-21.73 197.57-22.91 196.86-24.1 196.54-24.57 196.23-25.05 196.01-25.29L196.01-25.29ZM235.31-25.29L235.31-1.29Q235.31-0.56 235.03-0.28 234.75 0 234.04 0L234.04 0 229.13 0Q228.45 0 228.16-0.28 227.86-0.56 227.86-1.29L227.86-1.29 227.86-32.23Q227.86-33.67 228.42-34.34 228.99-35.01 230.4-35.01L230.4-35.01 232.67-35.01Q233.92-35.01 235.03-34.68 236.14-34.35 237.4-33.2 238.65-32.06 240.33-29.65 242-27.25 244.37-23.1L244.37-23.1Q246.64-19.14 248.02-16.77 249.4-14.4 250.15-13.16 250.91-11.91 251.29-11.38 251.67-10.84 251.91-10.5L251.91-10.5 251.91-31.1Q251.91-31.81 252.13-32.18L252.13-32.18Q253.18-33.79 255.04-35.57L255.04-35.57Q255.4-35.86 255.65-35.86L255.65-35.86Q255.92-35.86 256.23-35.57L256.23-35.57Q257.23-34.64 257.93-33.8 258.63-32.96 259.14-32.18L259.14-32.18Q259.36-31.79 259.36-31.1L259.36-31.1 259.36-2.03Q259.36-0.93 258.94-0.46 258.53 0 257.43 0L257.43 0 255.09 0Q254.04 0 252.94-0.35 251.84-0.71 250.45-1.97 249.05-3.22 247.15-5.88 245.25-8.54 242.56-13.16L242.56-13.16Q240.29-17.09 238.94-19.41 237.58-21.73 236.87-22.91 236.16-24.1 235.85-24.57 235.53-25.05 235.31-25.29L235.31-25.29ZM285.48 0L273.2 0Q270.68 0 269.38-0.63 268.07-1.27 267.62-2.71 267.17-4.15 267.17-6.54L267.17-6.54 267.17-28.47Q267.17-30.91 267.62-32.34 268.07-33.76 269.38-34.39 270.68-35.01 273.2-35.01L273.2-35.01 284.67-35.01Q285.26-35.01 285.55-34.81L285.55-34.81Q286.19-34.38 286.87-33.76 287.55-33.15 288.31-32.3L288.31-32.3Q288.55-31.98 288.55-31.79L288.55-31.79Q288.55-31.57 288.31-31.3L288.31-31.3Q287.55-30.44 286.87-29.83 286.19-29.22 285.55-28.78L285.55-28.78Q285.21-28.59 284.67-28.59L284.67-28.59 277.84-28.59Q276.23-28.59 275.64-27.91 275.05-27.22 275.05-25.56L275.05-25.56 275.05-20.83 283.82-20.83Q284.4-20.83 284.7-20.63L284.7-20.63Q285.33-20.19 286.02-19.58 286.7-18.97 287.46-18.12L287.46-18.12Q287.7-17.8 287.7-17.6L287.7-17.6Q287.7-17.38 287.46-17.11L287.46-17.11Q286.7-16.26 286.02-15.65 285.33-15.04 284.7-14.6L284.7-14.6Q284.36-14.4 283.82-14.4L283.82-14.4 275.05-14.4 275.05-9.47Q275.05-7.84 275.64-7.13 276.23-6.42 277.84-6.42L277.84-6.42 285.48-6.42Q286.06-6.42 286.36-6.23L286.36-6.23Q286.99-5.79 287.68-5.18 288.36-4.57 289.12-3.71L289.12-3.71Q289.36-3.39 289.36-3.2L289.36-3.2Q289.36-2.98 289.12-2.71L289.12-2.71Q288.36-1.86 287.68-1.25 286.99-0.63 286.36-0.2L286.36-0.2Q286.02 0 285.48 0L285.48 0ZM309.18-5.98L309.18-5.98Q310.96-5.98 311.98-6.35 312.99-6.71 313.55-7.25 314.11-7.79 314.53-8.33L314.53-8.33Q314.92-8.81 315.18-9.06 315.43-9.3 315.9-9.4L315.9-9.4Q316.29-9.52 317.15-9.56 318.02-9.59 318.89-9.59 319.75-9.59 320.09-9.55L320.09-9.55Q320.61-9.52 320.8-9.35L320.8-9.35Q321-9.18 321.05-8.62L321.05-8.62Q321.12-7.84 321.13-6.76 321.14-5.69 321.1-4.91L321.1-4.91Q321.07-4.66 321.01-4.49 320.95-4.32 320.75-3.98L320.75-3.98Q320.51-3.59 319.8-2.84 319.09-2.1 317.73-1.31 316.36-0.51 314.2 0.05 312.04 0.61 308.89 0.61L308.89 0.61Q305.52 0.61 302.59-0.26 299.66-1.12 297.45-3.17 295.24-5.22 294.01-8.72 292.78-12.21 292.78-17.43L292.78-17.43Q292.78-23.24 294.79-27.31 296.8-31.37 300.51-33.5 304.23-35.62 309.3-35.62L309.3-35.62Q312.87-35.62 315.03-34.89 317.19-34.16 318.31-33.17 319.44-32.18 319.9-31.45L319.9-31.45Q320.07-31.18 320.14-30.97 320.22-30.76 320.24-30.32L320.24-30.32Q320.31-29.74 320.28-28.61 320.24-27.49 320.09-26.64L320.09-26.64Q320-26.1 319.78-25.93L319.78-25.93Q319.68-25.83 319.44-25.76 319.19-25.68 318.7-25.68L318.7-25.68Q317.92-25.68 316.95-25.74 315.97-25.81 315.48-25.88L315.48-25.88Q314.89-25.98 314.63-26.16 314.36-26.34 314.09-26.73L314.09-26.73Q313.65-27.37 312.58-28.2 311.5-29.03 309.04-29.03L309.04-29.03Q305.57-29.03 303.32-26.35 301.08-23.68 301.08-17.7L301.08-17.7Q301.08-11.74 303.43-8.86 305.79-5.98 309.18-5.98ZM341.65-28.59L341.65-1.29Q341.65-0.56 341.34-0.28 341.04 0 340.31 0L340.31 0 335.11 0Q334.37 0 334.07-0.28 333.76-0.56 333.76-1.29L333.76-1.29 333.76-28.59 326.49-28.59Q325.9-28.59 325.61-28.78L325.61-28.78Q324.98-29.22 324.3-29.83 323.63-30.44 322.85-31.3L322.85-31.3Q322.61-31.62 322.61-31.81L322.61-31.81Q322.61-32.03 322.85-32.3L322.85-32.3Q323.63-33.15 324.3-33.76 324.98-34.38 325.61-34.81L325.61-34.81Q325.95-35.01 326.49-35.01L326.49-35.01 348.95-35.01Q349.54-35.01 349.83-34.81L349.83-34.81Q350.46-34.38 351.15-33.76 351.83-33.15 352.59-32.3L352.59-32.3Q352.83-31.98 352.83-31.79L352.83-31.79Q352.83-31.57 352.59-31.3L352.59-31.3Q351.83-30.44 351.15-29.83 350.46-29.22 349.83-28.78L349.83-28.78Q349.49-28.59 348.95-28.59L348.95-28.59 341.65-28.59Z" opacity="1" transform="matrix(1,0,0,1,0,0)" fill="#ffffff" class="wordmark-text-0" data-fill-palette-color="primary" id="text-0"></path></svg></g></svg></g></svg></g></svg></g><g transform="matrix(1,0,0,1,405.27994770887005,0)"><svg viewBox="0 0 57.135192622962286 57.135192622962286" height="57.135192622962286" width="57.135192622962286"><g data-palette-color="#c1c7d7"><rect width="15.616952650276358" height="57.135192622962286" fill="#ffffff" stroke="transparent" data-fill-palette-color="accent" x="0" fill-opacity="1"></rect><rect width="15.616952650276358" height="57.135192622962286" fill="#ffffff" stroke="transparent" data-fill-palette-color="accent" x="19.045064207654097" fill-opacity="0.75"></rect><rect width="15.616952650276358" height="57.135192622962286" fill="#ffffff" stroke="transparent" data-fill-palette-color="accent" x="38.09012841530819" fill-opacity="0.5"></rect></g></svg></g></svg></g><defs></defs></svg><rect width="395.52" height="48.86974801477624" fill="none" stroke="none" visibility="hidden"></rect></g></svg></g></svg>